<?xml version="1.0" encoding="utf-8"?>
<!-- Generator: Adobe Illustrator 23.0.1, SVG Export Plug-In . SVG Version: 6.00 Build 0)  -->
<svg version="1.1" id="Camada_1" xmlns="http://www.w3.org/2000/svg" xmlns:xlink="http://www.w3.org/1999/xlink" x="0px" y="0px"
	 viewBox="0 0 411 212.6" style="enable-background:new 0 0 411 212.6;" xml:space="preserve">
<style type="text/css">
	.st0{fill:url(#SVGID_1_);}
	.st1{fill:url(#SVGID_2_);}
	.st2{fill:url(#SVGID_3_);}
	.st3{fill:url(#SVGID_4_);}
	.st4{fill:url(#SVGID_5_);}
	.st5{fill:url(#SVGID_6_);}
	.st6{fill:url(#SVGID_7_);}
	.st7{fill:url(#SVGID_8_);}
	.st8{fill:url(#SVGID_9_);}
	.st9{fill:url(#SVGID_10_);}
	.st10{fill:url(#SVGID_11_);}
	.st11{fill:url(#SVGID_12_);}
	.st12{fill:url(#SVGID_13_);}
	.st13{fill:url(#SVGID_14_);}
	.st14{fill:url(#SVGID_15_);}
	.st15{fill:url(#SVGID_16_);}
	.st16{fill:url(#SVGID_17_);}
	.st17{fill:url(#SVGID_18_);}
	.st18{fill:url(#SVGID_19_);}
	.st19{fill:url(#SVGID_20_);}
	.st20{fill:url(#SVGID_21_);}
	.st21{fill:url(#SVGID_22_);}
	.st22{fill:url(#SVGID_23_);}
	.st23{fill:url(#SVGID_24_);}
	.st24{fill:url(#SVGID_25_);}
	.st25{fill:url(#SVGID_26_);}
	.st26{fill:url(#SVGID_27_);}
	.st27{fill:#008CFA;}
	.st28{fill:#5AAAFA;}
	.st29{fill:#E6E6E6;}
</style>
<g>
	<g>
		<g>
			<linearGradient id="SVGID_1_" gradientUnits="userSpaceOnUse" x1="122.5818" y1="272.193" x2="283.5188" y2="-6.5581">
				<stop  offset="0" style="stop-color:#5AAAFA"/>
				<stop  offset="0.4022" style="stop-color:#008CFA"/>
			</linearGradient>
			<path class="st0" d="M367.3,124.2c0.4,0,1-0.2,1.3,0c6.8,5.3,13.4,11,17.4,19.3c2.9,5.8,3,11.7-0.9,17.1
				c-2.3,3.3-5.3,5.8-8.7,7.6c-6.5,3.5-13.4,5.3-20.6,5.9c-5.9,0.5-11.9,1-17.9,0.7c-10.2-0.5-20.5-1.2-30.6-2.4
				c-12.7-1.5-25.4-3.5-38-5.5c-12.5-1.9-24.9-4.1-37.4-6c-13.5-2-27-4-40.5-5.6c-10.6-1.2-21.2-2.1-31.8-2.6
				c-10.2-0.5-20.5-0.6-30.7-0.3c-26.8,1-52.4,8.1-77,19.3c-13.7,6.3-25.9,15.1-36.9,26c-2.9,2.9-5.9,5.8-7.8,7.8
				c2.4-3.4,5.5-8,8.9-12.4c11.4-14.8,25.1-26.7,40.9-35.5c5.8-3.2,11.8-5.9,17.8-8.7c1.8-0.8,2.5-1.7,2.5-3.9
				c-0.1-28.8-0.1-57.6-0.1-86.3c0-16.6,0-33.2,0-49.8c0-0.3,0-0.7,0.1-1.5c1.2,1.2,2.2,2.2,3.2,3.3c7.2,7.7,14.3,15.5,21.5,23.2
				c16.8,18.1,33.6,36.2,50.4,54.3c1,1.1,1.5,1.1,2.6,0c18.8-20.4,37.7-40.7,56.5-61.1c6-6.5,11.8-13.2,17.7-19.8
				c0.2,0.1,0.5,0.3,0.7,0.4c0,0.7,0,1.4,0,2c0,41.3,0,82.5,0,123.8c0,4,0,4.1,3.6,4.5c9.8,1.3,19.6,2.5,29.3,3.8
				c4.7,0.6,9.5,1.5,14.2,2c10.6,1,21.2,0.8,31.3-3.7c10-4.5,17.7-11.9,23.4-21.8c7.1-12.2,9.4-25.5,6.9-39.5
				c-2.4-13.3-8.9-24.1-18.8-32.6c-8.4-7.3-18-11.2-28.8-11.5c-8.8-0.3-17.6-0.2-26.4-0.3c-0.8,0-1.9-0.4-2.5-1.1
				c-7.7-8.2-15.3-16.6-22.9-24.8c-0.3-0.3-0.6-0.7-1-1.3c0.8,0,1.3-0.1,1.9-0.1c15.8,0,31.6,0,47.3,0c15.1,0,29,4.2,41.8,13
				c11.9,8.2,20.9,19.1,27.4,32.5c5.1,10.4,7.6,21.5,8.1,33.2c0.8,20-4.6,37.8-15.9,53.5c-3.2,4.4-6.8,8.4-10.2,12.6
				c0,0,0.4,0.3,0.8,0.3c9.8,0.6,19.6,1.3,29.3-1c2.2-0.5,4.4-1.4,6.4-2.6c3.5-2.1,4.5-5.6,3-9.7c-1.8-5-5.2-8.7-8.8-12.4
				c-0.6-0.7-1.3-1.3-2-2C367.3,124.5,367.3,124.3,367.3,124.2z M102.8,73.4c-0.2,0.1-0.4,0.3-0.6,0.4c0,0.6-0.1,1.2-0.1,1.7
				c0,10.1,0,20.2,0,30.3c0,10.7,0,21.4,0,32.1c0,1.3,0,2.2,1.7,1.8c4.1-0.9,8.3-1.7,12.5-2.4c15.3-2.7,30.8-3.6,46.2-3.8
				c7.9-0.1,15.8,0.3,23.6,0.6c5.6,0.2,11.1,0.7,16.7,1c1.9,0.1,2.1,0,2.1-2.2c0-19.2,0-38.4,0-57.7c0-0.5-0.1-1.1-0.2-2
				c-0.6,0.6-1,0.9-1.3,1.2c-3.7,4-7.5,7.9-11.2,11.9c-12.5,13.4-25,26.9-37.4,40.3c-1,1.1-1.6,1.2-2.7,0
				c-14.1-15.2-28.2-30.4-42.3-45.6C107.4,78.7,105.2,76,102.8,73.4z"/>
			<linearGradient id="SVGID_2_" gradientUnits="userSpaceOnUse" x1="197.5591" y1="248.0756" x2="284.3066" y2="97.8245">
				<stop  offset="0" style="stop-color:#5AAAFA"/>
				<stop  offset="0.4022" style="stop-color:#008CFA"/>
			</linearGradient>
			<path class="st1" d="M364.6,185.4c-2.5,0.6-4.5,1.2-6.5,1.7c0,0.1,0,0.3,0.1,0.4c5.5-0.8,11-1.6,16.5-2.4c0,0.1,0.1,0.3,0.1,0.4
				c-1.2,0.4-2.4,0.8-3.7,1.3c0.1,0.2,0.1,0.4,0.2,0.7c5.9-0.3,11.2-3,16.6-5.6c5.4-2.6,10.1-6.4,13.6-11.8
				c-0.2,0.5-0.4,1.1-0.7,1.6c-0.3,0.6-0.7,1.1-1,1.6c0.2,0.1,0.3,0.2,0.5,0.3c1.2-2.2,2.3-4.5,3.5-6.7c0.1,0,0.2,0.1,0.3,0.1
				c-0.8,1.9-1.6,3.8-2.3,5.7c-0.2,0.6-1.3,1.3-0.1,2c0.1,0,0,0.6-0.2,0.8c-1.4,1.8-1.9,4.1-3.8,5.7c-5.7,4.5-12,7.6-18.6,9.7
				c-6.2,2-12.6,3.6-19,5c-2.9,0.7-5.9,0.6-8.9,0.9c-0.5,0-1,0.1-1.7,0.2c0.5,0.2,0.7,0.3,1.3,0.6c-1.8,0.2-3.2,0.4-4.6,0.6
				c-10.7,1-21.5,1.5-32.2,0.5c-16.7-1.5-33.2-4.3-49.7-7.7c-20.1-4.2-40.2-8.5-60.4-12.4c-24.4-4.7-49-8.2-73.9-8.3
				c-18.3,0-36.3,2-53.9,7.7c0.4-0.2,0.8-0.5,1.2-0.7c0.4-0.2,0.8-0.3,1.3-0.5c12.3-4.8,25.2-7.1,38.2-8.4c23.5-2.4,47-1.8,70.6-0.1
				c35.4,2.5,70.5,7.5,105.5,13.5c9.2,1.6,18.3,3.2,27.5,4.7c3.5,0.6,7.1,0.8,10.6,1c1.7,0.1,3.5-0.3,5.2-0.3c1.8,0,3.6,0.1,5.3,0.1
				c2.1,0,4.3,0.3,6.4-0.1c5-1.1,10.1-1.1,15.1-2.1C363.3,184.9,363.8,185.1,364.6,185.4z M382.4,187.9c-12.2,4.5-24.8,6.3-37.4,7.7
				C357.8,195.1,370.4,193.2,382.4,187.9z"/>
			<linearGradient id="SVGID_3_" gradientUnits="userSpaceOnUse" x1="375.5376" y1="186.491" x2="381.3539" y2="176.4169">
				<stop  offset="0" style="stop-color:#5AAAFA"/>
				<stop  offset="0.4022" style="stop-color:#008CFA"/>
			</linearGradient>
			<path class="st2" d="M385.6,179.7c-1.4,0.9-2.7,1.8-4.3,2.8c0.6,0.1,0.9,0.2,1.2,0.3c0,0.1,0.1,0.2,0.1,0.3
				c-1.5,0.5-3,0.9-4.4,1.4c0-0.1,0-0.1-0.1-0.2c1-0.8,2-1.6,3-2.4c0-0.1-0.1-0.2-0.1-0.3c-3.2,0.8-6.3,1.7-9.5,2.5
				c0-0.2-0.1-0.4-0.1-0.6c2.6-0.7,5.2-1.3,7.7-2.1c0.5-0.1,0.9-0.4,1.4-0.6c1.8-0.6,3.7-1.2,5.5-1.8
				C385.8,179.2,385.7,179.4,385.6,179.7z"/>
			<linearGradient id="SVGID_4_" gradientUnits="userSpaceOnUse" x1="393.9726" y1="173.3685" x2="398.8032" y2="165.0015">
				<stop  offset="0" style="stop-color:#5AAAFA"/>
				<stop  offset="0.4022" style="stop-color:#008CFA"/>
			</linearGradient>
			<path class="st3" d="M393.5,173.1c1.9-2.6,3.7-5.3,5.6-7.9C397.7,168.2,396.3,171.2,393.5,173.1z"/>
			<linearGradient id="SVGID_5_" gradientUnits="userSpaceOnUse" x1="386.8561" y1="180.4042" x2="389.8137" y2="175.2816">
				<stop  offset="0" style="stop-color:#5AAAFA"/>
				<stop  offset="0.4022" style="stop-color:#008CFA"/>
			</linearGradient>
			<path class="st4" d="M385.6,179.7c0.1-0.2,0.2-0.4,0.3-0.6c1.7-0.9,3.3-1.9,5.3-3C389.7,178.5,387.6,179,385.6,179.7z"/>
		</g>
	</g>
</g>
<g>
	<g>
		<g>
			<linearGradient id="SVGID_6_" gradientUnits="userSpaceOnUse" x1="682.348" y1="475.504" x2="842.1028" y2="198.8006">
				<stop  offset="0" style="stop-color:#5AAAFA"/>
				<stop  offset="0.4022" style="stop-color:#008CFA"/>
			</linearGradient>
			<path class="st5" d="M926.3,328.2c0.4,0,1-0.2,1.3,0c6.8,5.3,13.4,10.9,17.4,19c2.9,5.8,3,11.5-0.9,16.9
				c-2.3,3.2-5.3,5.7-8.7,7.5c-6.5,3.5-13.4,5.2-20.6,5.8c-5.9,0.5-11.9,1-17.9,0.7c-10.2-0.5-20.5-1.2-30.6-2.4
				c-12.7-1.5-25.4-3.5-38-5.4c-12.5-1.9-24.9-4.1-37.4-5.9c-13.5-2-27-3.9-40.5-5.5c-10.6-1.2-21.2-2.1-31.8-2.6
				c-10.2-0.5-20.5-0.6-30.7-0.2c-26.8,1-52.4,7.9-77,19.1c-13.7,6.2-25.9,14.9-36.9,25.6c-2.9,2.9-5.9,5.8-7.8,7.7
				c2.4-3.3,5.5-7.9,8.9-12.3c11.4-14.6,25.1-26.3,40.9-35c5.8-3.2,11.8-5.9,17.8-8.5c1.8-0.8,2.5-1.7,2.5-3.9
				c-0.1-28.4-0.1-56.7-0.1-85.1c0-16.4,0-32.7,0-49.1c0-0.3,0-0.7,0.1-1.4c1.2,1.2,2.2,2.2,3.2,3.2c7.2,7.6,14.3,15.3,21.5,22.9
				c16.8,17.8,33.6,35.6,50.4,53.5c1,1,1.5,1.1,2.6,0c18.8-20.1,37.7-40.1,56.5-60.2c6-6.4,11.8-13,17.7-19.5
				c0.2,0.1,0.5,0.3,0.7,0.4c0,0.7,0,1.3,0,2c0,40.7,0,81.3,0,122c0,3.9,0,4,3.6,4.5c9.8,1.3,19.6,2.5,29.3,3.8
				c4.7,0.6,9.5,1.5,14.2,2c10.6,1,21.2,0.8,31.3-3.7c10-4.4,17.7-11.7,23.4-21.4c7.1-12,9.4-25.1,6.9-38.9
				c-2.4-13.1-8.9-23.8-18.8-32.1c-8.4-7.2-18-11-28.8-11.4c-8.8-0.3-17.6-0.2-26.4-0.3c-0.8,0-1.9-0.4-2.5-1
				c-7.7-8.1-15.3-16.3-22.9-24.5c-0.3-0.3-0.6-0.7-1-1.2c0.8,0,1.3-0.1,1.9-0.1c15.8,0,31.6,0,47.3,0c15.1,0,29,4.1,41.8,12.8
				c11.9,8.1,20.9,18.8,27.4,32.1c5.1,10.3,7.6,21.2,8.1,32.7c0.8,19.7-4.6,37.2-15.9,52.7c-3.2,4.3-6.8,8.3-10.2,12.4
				c0,0,0.4,0.3,0.8,0.3c9.8,0.5,19.6,1.3,29.3-1c2.2-0.5,4.4-1.4,6.4-2.6c3.5-2.1,4.5-5.5,3-9.5c-1.8-4.9-5.2-8.6-8.8-12.2
				c-0.6-0.7-1.3-1.3-2-1.9C926.3,328.5,926.3,328.4,926.3,328.2z M661.8,278.2c-0.2,0.1-0.4,0.3-0.6,0.4c0,0.6-0.1,1.1-0.1,1.7
				c0,10,0,19.9,0,29.9c0,10.6,0,21.1,0,31.7c0,1.3,0,2.2,1.7,1.8c4.1-0.9,8.3-1.6,12.5-2.4c15.3-2.7,30.8-3.5,46.2-3.7
				c7.9-0.1,15.8,0.3,23.6,0.5c5.6,0.2,11.1,0.6,16.7,1c1.9,0.1,2.1,0,2.1-2.1c0-18.9,0-37.9,0-56.8c0-0.5-0.1-1.1-0.2-1.9
				c-0.6,0.6-1,0.9-1.3,1.2c-3.7,3.9-7.5,7.8-11.2,11.7c-12.5,13.2-25,26.5-37.4,39.7c-1,1.1-1.6,1.2-2.7,0
				c-14.1-15-28.2-29.9-42.3-44.9C666.4,283.4,664.2,280.8,661.8,278.2z"/>
			<linearGradient id="SVGID_7_" gradientUnits="userSpaceOnUse" x1="756.5671" y1="451.3476" x2="843.2452" y2="301.2166">
				<stop  offset="0" style="stop-color:#5AAAFA"/>
				<stop  offset="0.4022" style="stop-color:#008CFA"/>
			</linearGradient>
			<path class="st6" d="M923.6,388.5c-2.5,0.6-4.5,1.1-6.5,1.6c0,0.1,0,0.3,0.1,0.4c5.5-0.8,11-1.5,16.5-2.3c0,0.1,0.1,0.3,0.1,0.4
				c-1.2,0.4-2.4,0.8-3.7,1.2c0.1,0.2,0.1,0.4,0.2,0.6c5.9-0.3,11.2-3,16.6-5.5c5.4-2.6,10.1-6.3,13.6-11.6
				c-0.2,0.5-0.4,1.1-0.7,1.6c-0.3,0.6-0.7,1.1-1,1.6c0.2,0.1,0.3,0.2,0.5,0.3c1.2-2.2,2.3-4.4,3.5-6.6c0.1,0,0.2,0.1,0.3,0.1
				c-0.8,1.9-1.6,3.7-2.3,5.6c-0.2,0.6-1.3,1.3-0.1,2c0.1,0,0,0.6-0.2,0.8c-1.4,1.8-1.9,4.1-3.8,5.6c-5.7,4.4-12,7.5-18.6,9.6
				c-6.2,2-12.6,3.5-19,5c-2.9,0.6-5.9,0.6-8.9,0.9c-0.5,0-1,0.1-1.7,0.2c0.5,0.2,0.7,0.3,1.3,0.6c-1.8,0.2-3.2,0.4-4.6,0.6
				c-10.7,1-21.5,1.4-32.2,0.5c-16.7-1.5-33.2-4.2-49.7-7.6c-20.1-4.1-40.2-8.4-60.4-12.2c-24.4-4.7-49-8.1-73.9-8.1
				c-18.3,0-36.3,2-53.9,7.6c0.4-0.2,0.8-0.5,1.2-0.7c0.4-0.2,0.8-0.3,1.3-0.5c12.3-4.7,25.2-7,38.2-8.2c23.5-2.3,47-1.7,70.6-0.1
				c35.4,2.4,70.5,7.4,105.5,13.3c9.2,1.5,18.3,3.2,27.5,4.6c3.5,0.6,7.1,0.8,10.6,1c1.7,0.1,3.5-0.3,5.2-0.3c1.8,0,3.6,0.1,5.3,0.1
				c2.1,0,4.3,0.3,6.4-0.1c5-1.1,10.1-1.1,15.1-2.1C922.3,388,922.8,388.3,923.6,388.5z M941.4,391c-12.2,4.4-24.8,6.2-37.4,7.6
				C916.8,398.1,929.4,396.2,941.4,391z"/>
			<linearGradient id="SVGID_8_" gradientUnits="userSpaceOnUse" x1="934.5534" y1="389.6788" x2="940.338" y2="379.6596">
				<stop  offset="0" style="stop-color:#5AAAFA"/>
				<stop  offset="0.4022" style="stop-color:#008CFA"/>
			</linearGradient>
			<path class="st7" d="M944.6,382.9c-1.4,0.9-2.7,1.7-4.3,2.8c0.6,0.1,0.9,0.2,1.2,0.3c0,0.1,0.1,0.2,0.1,0.3
				c-1.5,0.5-3,0.9-4.4,1.4c0-0.1,0-0.1-0.1-0.2c1-0.8,2-1.6,3-2.4c0-0.1-0.1-0.2-0.1-0.3c-3.2,0.8-6.3,1.7-9.5,2.5
				c0-0.2-0.1-0.4-0.1-0.6c2.6-0.7,5.2-1.3,7.7-2c0.5-0.1,0.9-0.4,1.4-0.6c1.8-0.6,3.7-1.2,5.5-1.8
				C944.8,382.5,944.7,382.7,944.6,382.9z"/>
			<linearGradient id="SVGID_9_" gradientUnits="userSpaceOnUse" x1="952.9857" y1="376.714" x2="957.7667" y2="368.4331">
				<stop  offset="0" style="stop-color:#5AAAFA"/>
				<stop  offset="0.4022" style="stop-color:#008CFA"/>
			</linearGradient>
			<path class="st8" d="M952.5,376.4c1.9-2.6,3.7-5.2,5.6-7.8C956.7,371.6,955.3,374.6,952.5,376.4z"/>
			<linearGradient id="SVGID_10_" gradientUnits="userSpaceOnUse" x1="945.8693" y1="383.6548" x2="948.8043" y2="378.5712">
				<stop  offset="0" style="stop-color:#5AAAFA"/>
				<stop  offset="0.4022" style="stop-color:#008CFA"/>
			</linearGradient>
			<path class="st9" d="M944.6,382.9c0.1-0.2,0.2-0.4,0.3-0.6c1.7-0.9,3.3-1.8,5.3-2.9C948.7,381.7,946.6,382.3,944.6,382.9z"/>
		</g>
	</g>
	<g>
		<g>
			<linearGradient id="SVGID_11_" gradientUnits="userSpaceOnUse" x1="584.6771" y1="439.7375" x2="616.1486" y2="439.7375">
				<stop  offset="0" style="stop-color:#5AAAFA"/>
				<stop  offset="0.1425" style="stop-color:#008CFA"/>
			</linearGradient>
			<path class="st10" d="M589.3,426.4h5l6.2,18.6l6.3-18.6h5l4.5,26.7h-4.9l-2.9-16.9l-5.7,16.9h-4.5l-5.6-16.9l-2.9,16.9h-5
				L589.3,426.4z"/>
			<linearGradient id="SVGID_12_" gradientUnits="userSpaceOnUse" x1="618.7286" y1="438.1021" x2="639.4797" y2="438.1021">
				<stop  offset="0" style="stop-color:#5AAAFA"/>
				<stop  offset="0.1425" style="stop-color:#008CFA"/>
			</linearGradient>
			<path class="st11" d="M639.5,444.7h-15.9c0.2,1.4,0.8,2.5,1.8,3.4c1,0.8,2.3,1.2,3.8,1.2c1.9,0,3.4-0.6,4.8-1.9l4.2,2
				c-1,1.5-2.3,2.6-3.7,3.3c-1.5,0.7-3.2,1.1-5.2,1.1c-3.1,0-5.6-1-7.6-2.9c-2-2-2.9-4.4-2.9-7.3c0-3,1-5.5,2.9-7.5
				c1.9-2,4.4-3,7.3-3c3.1,0,5.6,1,7.6,3c2,2,2.9,4.6,2.9,7.9L639.5,444.7z M634.5,440.7c-0.3-1.1-1-2-1.9-2.7c-1-0.7-2.1-1-3.4-1
				c-1.4,0-2.6,0.4-3.6,1.2c-0.7,0.5-1.3,1.3-1.8,2.6H634.5z M629.9,422.6h5.9l-6.7,7.1h-3.6L629.9,422.6z"/>
			<linearGradient id="SVGID_13_" gradientUnits="userSpaceOnUse" x1="642.5688" y1="439.6556" x2="663.0286" y2="439.6556">
				<stop  offset="0" style="stop-color:#5AAAFA"/>
				<stop  offset="0.1425" style="stop-color:#008CFA"/>
			</linearGradient>
			<path class="st12" d="M658.1,425.7h5v27.4h-5V451c-1,0.9-1.9,1.6-2.9,2c-1,0.4-2,0.6-3.2,0.6c-2.6,0-4.8-1-6.6-3
				c-1.9-2-2.8-4.4-2.8-7.4c0-3.1,0.9-5.6,2.7-7.5c1.8-1.9,4-2.9,6.6-2.9c1.2,0,2.3,0.2,3.3,0.7s2,1.1,2.9,2V425.7z M652.9,437.4
				c-1.5,0-2.8,0.5-3.8,1.6c-1,1.1-1.5,2.5-1.5,4.2c0,1.7,0.5,3.1,1.5,4.2c1,1.1,2.3,1.7,3.8,1.7c1.6,0,2.8-0.5,3.9-1.6
				c1-1.1,1.5-2.5,1.5-4.3c0-1.7-0.5-3.1-1.5-4.2C655.7,437.9,654.4,437.4,652.9,437.4z"/>
			<linearGradient id="SVGID_14_" gradientUnits="userSpaceOnUse" x1="666.8267" y1="439.1472" x2="673.1497" y2="439.1472">
				<stop  offset="0" style="stop-color:#5AAAFA"/>
				<stop  offset="0.1425" style="stop-color:#008CFA"/>
			</linearGradient>
			<path class="st13" d="M670,425.2c0.9,0,1.6,0.3,2.2,0.9c0.6,0.6,0.9,1.4,0.9,2.3c0,0.9-0.3,1.6-0.9,2.3c-0.6,0.6-1.4,0.9-2.2,0.9
				c-0.9,0-1.6-0.3-2.3-1c-0.6-0.6-0.9-1.4-0.9-2.3c0-0.9,0.3-1.6,0.9-2.2C668.4,425.5,669.1,425.2,670,425.2z M667.5,433.3h5v19.8
				h-5V433.3z"/>
			<linearGradient id="SVGID_15_" gradientUnits="userSpaceOnUse" x1="676.0025" y1="443.2163" x2="696.3173" y2="443.2163">
				<stop  offset="0" style="stop-color:#5AAAFA"/>
				<stop  offset="0.1425" style="stop-color:#008CFA"/>
			</linearGradient>
			<path class="st14" d="M696.3,437.3l-4.1,2.3c-0.8-0.8-1.5-1.4-2.3-1.7c-0.8-0.3-1.6-0.5-2.7-0.5c-1.9,0-3.4,0.6-4.5,1.7
				c-1.1,1.1-1.7,2.5-1.7,4.3c0,1.7,0.6,3.1,1.7,4.1c1.1,1.1,2.6,1.6,4.3,1.6c2.2,0,3.9-0.8,5.2-2.3l3.9,2.7c-2.1,2.8-5.1,4.1-9,4.1
				c-3.5,0-6.2-1-8.2-3.1c-2-2.1-3-4.5-3-7.2c0-1.9,0.5-3.7,1.4-5.3c1-1.6,2.3-2.9,4-3.8c1.7-0.9,3.6-1.4,5.8-1.4
				c2,0,3.7,0.4,5.3,1.2C694,434.8,695.3,435.9,696.3,437.3z"/>
			<linearGradient id="SVGID_16_" gradientUnits="userSpaceOnUse" x1="699.8241" y1="443.2163" x2="720.5566" y2="443.2163">
				<stop  offset="0" style="stop-color:#5AAAFA"/>
				<stop  offset="0.1425" style="stop-color:#008CFA"/>
			</linearGradient>
			<path class="st15" d="M710.1,432.8c1.9,0,3.6,0.5,5.3,1.4c1.6,0.9,2.9,2.2,3.8,3.8c0.9,1.6,1.4,3.3,1.4,5.2
				c0,1.9-0.5,3.6-1.4,5.2c-0.9,1.6-2.2,2.9-3.8,3.8c-1.6,0.9-3.4,1.4-5.3,1.4c-2.8,0-5.3-1-7.3-3c-2-2-3-4.5-3-7.3
				c0-3.1,1.1-5.7,3.4-7.7C705.2,433.7,707.5,432.8,710.1,432.8z M710.2,437.5c-1.5,0-2.8,0.5-3.8,1.6c-1,1.1-1.5,2.4-1.5,4.1
				c0,1.7,0.5,3.1,1.5,4.2c1,1.1,2.3,1.6,3.8,1.6c1.6,0,2.8-0.5,3.9-1.6c1-1.1,1.5-2.5,1.5-4.2c0-1.7-0.5-3.1-1.5-4.1
				C713,438,711.7,437.5,710.2,437.5z"/>
			<linearGradient id="SVGID_17_" gradientUnits="userSpaceOnUse" x1="723.046" y1="443.2163" x2="737.0739" y2="443.2163">
				<stop  offset="0" style="stop-color:#5AAAFA"/>
				<stop  offset="0.1425" style="stop-color:#008CFA"/>
			</linearGradient>
			<path class="st16" d="M736.7,436.1l-3.1,3.1c-1.2-1.2-2.4-1.9-3.4-1.9c-0.6,0-1,0.1-1.3,0.4c-0.3,0.2-0.5,0.5-0.5,0.9
				c0,0.3,0.1,0.5,0.3,0.7c0.2,0.2,0.7,0.5,1.5,0.9l1.8,0.9c1.9,0.9,3.2,1.9,3.9,2.9c0.7,1,1.1,2.1,1.1,3.5c0,1.8-0.6,3.2-1.9,4.4
				c-1.3,1.2-3,1.8-5.2,1.8c-2.9,0-5.2-1.1-6.9-3.4l3.1-3.3c0.6,0.7,1.3,1.2,2,1.6c0.8,0.4,1.5,0.6,2.1,0.6c0.7,0,1.2-0.2,1.6-0.5
				c0.4-0.3,0.6-0.7,0.6-1.1c0-0.8-0.7-1.5-2.2-2.2l-1.7-0.8c-3.2-1.6-4.8-3.6-4.8-6c0-1.6,0.6-2.9,1.8-4c1.2-1.1,2.7-1.7,4.6-1.7
				c1.3,0,2.5,0.3,3.6,0.8C735,434.2,735.9,435,736.7,436.1z"/>
			<linearGradient id="SVGID_18_" gradientUnits="userSpaceOnUse" x1="750.6476" y1="440.6182" x2="773.2795" y2="440.6182">
				<stop  offset="0" style="stop-color:#5AAAFA"/>
				<stop  offset="0.1425" style="stop-color:#008CFA"/>
			</linearGradient>
			<path class="st17" d="M768.7,442.6l3,3.5l-1.4,1.3l-1.4,1.2l4.3,4.5h-6.2l-1.8-1.8c-2.8,1.7-5.4,2.5-7.8,2.5c-2,0-3.7-0.6-5-1.8
				c-1.3-1.2-1.9-2.7-1.9-4.6c0-1.4,0.4-2.8,1.1-4c0.7-1.3,1.9-2.6,3.7-3.9c-1.7-2.3-2.6-4.4-2.6-6.1c0-1.3,0.6-2.6,1.7-3.9
				c1.1-1.3,2.7-1.9,4.8-1.9c2.1,0,3.7,0.6,4.8,1.9c1.1,1.3,1.7,2.6,1.7,3.9c0,1-0.3,2-0.8,2.9c-0.5,0.9-1.7,2.3-3.6,4.1
				c2.2,2.6,3.6,4.1,4.2,4.8C766.1,444.8,767.1,444,768.7,442.6z M762.1,447.7c-0.9-0.9-2.3-2.4-4-4.6c-1.8,1.5-2.7,2.8-2.7,3.9
				c0,0.5,0.2,1,0.7,1.4c0.5,0.4,1.1,0.7,1.9,0.7C759.1,449.2,760.4,448.7,762.1,447.7z M759,436.7c1.3-1.2,2-2.2,2-3.1
				c0-0.5-0.2-0.8-0.5-1.1c-0.3-0.3-0.7-0.4-1.2-0.4c-0.5,0-0.9,0.2-1.2,0.5s-0.5,0.7-0.5,1.1C757.7,434.6,758.2,435.6,759,436.7z"
				/>
			<linearGradient id="SVGID_19_" gradientUnits="userSpaceOnUse" x1="787.6793" y1="439.7375" x2="808.8662" y2="439.7375">
				<stop  offset="0" style="stop-color:#5AAAFA"/>
				<stop  offset="0.1425" style="stop-color:#008CFA"/>
			</linearGradient>
			<path class="st18" d="M787.7,426.4h6c3.9,0,6.8,0.5,8.7,1.4c1.9,1,3.4,2.5,4.7,4.7c1.2,2.2,1.8,4.7,1.8,7.6c0,2.1-0.3,4-1,5.7
				c-0.7,1.7-1.6,3.2-2.8,4.3c-1.2,1.1-2.5,1.9-3.9,2.4c-1.4,0.4-3.8,0.7-7.3,0.7h-6.1V426.4z M792.7,431.3v16.9h2.4
				c2.3,0,4-0.3,5.1-0.8c1-0.5,1.9-1.4,2.6-2.7c0.7-1.3,1-2.8,1-4.7c0-2.8-0.8-5-2.4-6.6c-1.4-1.4-3.7-2.1-6.9-2.1H792.7z"/>
			<linearGradient id="SVGID_20_" gradientUnits="userSpaceOnUse" x1="812.2461" y1="443.2163" x2="832.9967" y2="443.2163">
				<stop  offset="0" style="stop-color:#5AAAFA"/>
				<stop  offset="0.1425" style="stop-color:#008CFA"/>
			</linearGradient>
			<path class="st19" d="M833,444.7H817c0.2,1.4,0.8,2.5,1.8,3.4c1,0.8,2.3,1.2,3.8,1.2c1.9,0,3.4-0.6,4.8-1.9l4.2,2
				c-1,1.5-2.3,2.6-3.7,3.3c-1.5,0.7-3.2,1.1-5.2,1.1c-3.1,0-5.6-1-7.6-2.9c-2-2-2.9-4.4-2.9-7.3c0-3,1-5.5,2.9-7.5
				c1.9-2,4.4-3,7.3-3c3.1,0,5.6,1,7.6,3c2,2,2.9,4.6,2.9,7.9L833,444.7z M828,440.7c-0.3-1.1-1-2-1.9-2.7c-1-0.7-2.1-1-3.4-1
				c-1.4,0-2.6,0.4-3.6,1.2c-0.7,0.5-1.3,1.3-1.8,2.6H828z"/>
			<linearGradient id="SVGID_21_" gradientUnits="userSpaceOnUse" x1="836.9944" y1="442.9621" x2="854.5291" y2="442.9621">
				<stop  offset="0" style="stop-color:#5AAAFA"/>
				<stop  offset="0.1425" style="stop-color:#008CFA"/>
			</linearGradient>
			<path class="st20" d="M837,433.3h5v2c1.1-0.9,2.1-1.6,3.1-2c0.9-0.4,1.8-0.6,2.8-0.6c2,0,3.6,0.7,5,2.1c1.1,1.2,1.7,2.9,1.7,5.2
				v13.1h-4.9v-8.7c0-2.4-0.1-3.9-0.3-4.7c-0.2-0.8-0.6-1.4-1.1-1.8c-0.5-0.4-1.2-0.6-1.9-0.6c-1,0-1.9,0.3-2.6,1
				c-0.7,0.7-1.2,1.6-1.5,2.8c-0.1,0.6-0.2,2-0.2,4v7.9h-5V433.3z"/>
			<linearGradient id="SVGID_22_" gradientUnits="userSpaceOnUse" x1="857.382" y1="439.5736" x2="867.83" y2="439.5736">
				<stop  offset="0" style="stop-color:#5AAAFA"/>
				<stop  offset="0.1425" style="stop-color:#008CFA"/>
			</linearGradient>
			<path class="st21" d="M859.9,426h5v7.3h2.9v4.3h-2.9v15.5h-5v-15.5h-2.5v-4.3h2.5V426z"/>
			<linearGradient id="SVGID_23_" gradientUnits="userSpaceOnUse" x1="869.2657" y1="439.1472" x2="875.5882" y2="439.1472">
				<stop  offset="0" style="stop-color:#5AAAFA"/>
				<stop  offset="0.1425" style="stop-color:#008CFA"/>
			</linearGradient>
			<path class="st22" d="M872.4,425.2c0.9,0,1.6,0.3,2.2,0.9c0.6,0.6,0.9,1.4,0.9,2.3c0,0.9-0.3,1.6-0.9,2.3
				c-0.6,0.6-1.4,0.9-2.2,0.9c-0.9,0-1.6-0.3-2.3-1c-0.6-0.6-0.9-1.4-0.9-2.3c0-0.9,0.3-1.6,0.9-2.2
				C870.8,425.5,871.5,425.2,872.4,425.2z M869.9,433.3h5v19.8h-5V433.3z"/>
			<linearGradient id="SVGID_24_" gradientUnits="userSpaceOnUse" x1="877.8417" y1="443.2163" x2="891.8698" y2="443.2163">
				<stop  offset="0" style="stop-color:#5AAAFA"/>
				<stop  offset="0.1425" style="stop-color:#008CFA"/>
			</linearGradient>
			<path class="st23" d="M891.5,436.1l-3.1,3.1c-1.2-1.2-2.4-1.9-3.4-1.9c-0.6,0-1,0.1-1.3,0.4s-0.5,0.5-0.5,0.9
				c0,0.3,0.1,0.5,0.3,0.7c0.2,0.2,0.7,0.5,1.5,0.9l1.8,0.9c1.9,0.9,3.2,1.9,3.9,2.9c0.7,1,1.1,2.1,1.1,3.5c0,1.8-0.6,3.2-1.9,4.4
				c-1.3,1.2-3,1.8-5.2,1.8c-2.9,0-5.2-1.1-6.9-3.4l3.1-3.3c0.6,0.7,1.3,1.2,2,1.6c0.8,0.4,1.5,0.6,2.1,0.6c0.7,0,1.2-0.2,1.6-0.5
				c0.4-0.3,0.6-0.7,0.6-1.1c0-0.8-0.7-1.5-2.2-2.2l-1.7-0.8c-3.2-1.6-4.8-3.6-4.8-6c0-1.6,0.6-2.9,1.8-4c1.2-1.1,2.7-1.7,4.6-1.7
				c1.3,0,2.5,0.3,3.6,0.8C889.8,434.2,890.7,435,891.5,436.1z"/>
			<linearGradient id="SVGID_25_" gradientUnits="userSpaceOnUse" x1="893.8315" y1="439.5736" x2="904.2795" y2="439.5736">
				<stop  offset="0" style="stop-color:#5AAAFA"/>
				<stop  offset="0.1425" style="stop-color:#008CFA"/>
			</linearGradient>
			<path class="st24" d="M896.4,426h5v7.3h2.9v4.3h-2.9v15.5h-5v-15.5h-2.5v-4.3h2.5V426z"/>
			<linearGradient id="SVGID_26_" gradientUnits="userSpaceOnUse" x1="906.0246" y1="443.2163" x2="926.4844" y2="443.2163">
				<stop  offset="0" style="stop-color:#5AAAFA"/>
				<stop  offset="0.1425" style="stop-color:#008CFA"/>
			</linearGradient>
			<path class="st25" d="M921.5,433.3h5v19.8h-5V451c-1,0.9-1.9,1.6-2.9,2c-1,0.4-2,0.6-3.2,0.6c-2.6,0-4.8-1-6.6-3
				c-1.9-2-2.8-4.4-2.8-7.4c0-3.1,0.9-5.6,2.7-7.5c1.8-1.9,4-2.9,6.6-2.9c1.2,0,2.3,0.2,3.3,0.7s2,1.1,2.9,2V433.3z M916.3,437.4
				c-1.5,0-2.8,0.5-3.8,1.6c-1,1.1-1.5,2.5-1.5,4.2c0,1.7,0.5,3.1,1.5,4.2c1,1.1,2.3,1.7,3.8,1.7c1.6,0,2.8-0.5,3.9-1.6
				c1-1.1,1.5-2.5,1.5-4.3c0-1.7-0.5-3.1-1.5-4.2C919.2,437.9,917.9,437.4,916.3,437.4z"/>
			<linearGradient id="SVGID_27_" gradientUnits="userSpaceOnUse" x1="929.9365" y1="443.2163" x2="943.9645" y2="443.2163">
				<stop  offset="0" style="stop-color:#5AAAFA"/>
				<stop  offset="0.1425" style="stop-color:#008CFA"/>
			</linearGradient>
			<path class="st26" d="M943.6,436.1l-3.1,3.1c-1.2-1.2-2.4-1.9-3.4-1.9c-0.6,0-1,0.1-1.3,0.4c-0.3,0.2-0.5,0.5-0.5,0.9
				c0,0.3,0.1,0.5,0.3,0.7c0.2,0.2,0.7,0.5,1.5,0.9l1.8,0.9c1.9,0.9,3.2,1.9,3.9,2.9c0.7,1,1.1,2.1,1.1,3.5c0,1.8-0.6,3.2-1.9,4.4
				c-1.3,1.2-3,1.8-5.2,1.8c-2.9,0-5.2-1.1-6.9-3.4l3.1-3.3c0.6,0.7,1.3,1.2,2,1.6c0.8,0.4,1.5,0.6,2.1,0.6c0.7,0,1.2-0.2,1.6-0.5
				c0.4-0.3,0.6-0.7,0.6-1.1c0-0.8-0.7-1.5-2.2-2.2l-1.7-0.8c-3.2-1.6-4.8-3.6-4.8-6c0-1.6,0.6-2.9,1.8-4c1.2-1.1,2.7-1.7,4.6-1.7
				c1.3,0,2.5,0.3,3.6,0.8C941.9,434.2,942.8,435,943.6,436.1z"/>
		</g>
	</g>
</g>
<g>
	<g>
		<path class="st27" d="M376.2,748.9c0.5,0,1.1-0.2,1.5,0c7.6,5.5,14.8,11.3,19.3,19.7c3.2,6,3.3,12-1,17.6
			c-2.6,3.3-5.9,5.9-9.7,7.8c-7.2,3.6-14.9,5.4-22.8,6c-6.6,0.5-13.2,1-19.8,0.7c-11.3-0.5-22.6-1.2-33.9-2.5c-14-1.5-28-3.6-42-5.6
			c-13.8-2-27.6-4.2-41.4-6.2c-14.9-2.1-29.8-4.1-44.8-5.7c-11.7-1.3-23.4-2.2-35.2-2.7c-11.3-0.5-22.7-0.7-34-0.3
			c-29.6,1.1-58,8.3-85.2,19.8c-15.1,6.4-28.7,15.5-40.8,26.6c-3.3,3-6.5,6-8.7,8c2.6-3.4,6-8.2,9.8-12.7
			c12.6-15.2,27.8-27.3,45.2-36.4c6.4-3.3,13.1-6.1,19.7-8.9c2-0.8,2.8-1.8,2.8-4c-0.1-29.5-0.1-58.9-0.1-88.4c0-17,0-34,0-51
			c0-0.4,0-0.7,0.1-1.5c1.3,1.3,2.4,2.3,3.5,3.4c7.9,7.9,15.8,15.9,23.8,23.8c18.6,18.5,37.1,37,55.7,55.6c1.1,1.1,1.7,1.1,2.8,0
			c20.8-20.9,41.6-41.7,62.4-62.6c6.6-6.7,13.1-13.5,19.6-20.3c0.3,0.2,0.5,0.3,0.8,0.5c0,0.7,0,1.4,0,2.1c0,42.2,0,84.5,0,126.7
			c0,4.1,0,4.2,4,4.7c10.8,1.3,21.6,2.6,32.4,3.9c5.2,0.6,10.5,1.6,15.7,2c11.8,1,23.4,0.8,34.6-3.8c11-4.6,19.6-12.2,25.9-22.3
			c7.9-12.5,10.4-26.1,7.6-40.5c-2.7-13.7-9.9-24.7-20.8-33.4c-9.3-7.4-19.9-11.5-31.8-11.8c-9.7-0.3-19.4-0.2-29.1-0.3
			c-0.9,0-2.1-0.4-2.8-1.1c-8.5-8.4-16.9-16.9-25.3-25.4c-0.3-0.3-0.6-0.7-1.1-1.3c0.9,0,1.5-0.1,2.1-0.1c17.4,0,34.9,0,52.3,0
			c16.7,0,32.1,4.3,46.2,13.3c13.1,8.4,23,19.6,30.3,33.3c5.6,10.7,8.4,22,8.9,34c0.9,20.4-5.1,38.7-17.6,54.8
			c-3.5,4.5-7.5,8.6-11.3,12.9c0,0,0.4,0.3,0.9,0.3c10.8,0.6,21.7,1.4,32.4-1c2.5-0.5,4.9-1.5,7.1-2.7c3.9-2.2,5-5.7,3.3-9.9
			c-2-5.1-5.8-8.9-9.7-12.7c-0.7-0.7-1.4-1.3-2.2-2C376.1,749.3,376.2,749.1,376.2,748.9z M83.8,697c-0.2,0.1-0.5,0.3-0.7,0.4
			c0,0.6-0.1,1.2-0.1,1.8c0,10.3,0,20.7,0,31c0,11,0,21.9,0,32.9c0,1.3,0,2.3,1.9,1.8c4.6-1,9.2-1.7,13.8-2.5
			c16.9-2.8,34-3.7,51.1-3.9c8.7-0.1,17.4,0.3,26.1,0.6c6.2,0.2,12.3,0.7,18.4,1.1c2.1,0.1,2.3,0,2.3-2.2c0-19.7,0-39.4,0-59.1
			c0-0.6-0.1-1.1-0.2-2c-0.7,0.6-1.1,0.9-1.4,1.2c-4.1,4.1-8.3,8.1-12.4,12.2c-13.8,13.8-27.6,27.5-41.4,41.3c-1.1,1.1-1.8,1.2-3,0
			c-15.6-15.6-31.2-31.1-46.8-46.7C88.9,702.4,86.3,699.7,83.8,697z"/>
		<path class="st27" d="M373.2,811.6c-2.8,0.7-5,1.2-7.2,1.7c0,0.1,0.1,0.3,0.1,0.4c6.1-0.8,12.2-1.6,18.2-2.4
			c0,0.1,0.1,0.3,0.1,0.4c-1.4,0.4-2.7,0.9-4.1,1.3c0.1,0.2,0.1,0.4,0.2,0.7c6.5-0.3,12.4-3.1,18.3-5.7c6-2.7,11.1-6.5,15-12.1
			c-0.2,0.5-0.5,1.1-0.8,1.6c-0.3,0.6-0.8,1.1-1.1,1.7c0.2,0.1,0.3,0.2,0.5,0.3c1.3-2.3,2.6-4.6,3.8-6.9c0.1,0,0.2,0.1,0.3,0.1
			c-0.8,1.9-1.7,3.9-2.5,5.8c-0.3,0.6-1.4,1.3-0.1,2.1c0.1,0.1,0,0.7-0.2,0.9c-1.5,1.8-2.1,4.2-4.2,5.8c-6.3,4.6-13.2,7.8-20.6,9.9
			c-6.9,2.1-14,3.7-21,5.1c-3.2,0.7-6.5,0.6-9.8,0.9c-0.5,0-1.1,0.1-1.9,0.2c0.5,0.2,0.8,0.3,1.5,0.6c-2,0.2-3.5,0.4-5.1,0.6
			c-11.8,1.1-23.7,1.5-35.6,0.5c-18.4-1.6-36.7-4.4-54.9-7.9c-22.3-4.3-44.5-8.7-66.8-12.7c-27-4.9-54.2-8.4-81.7-8.5
			c-20.2,0-40.2,2-59.6,7.9c0.4-0.2,0.8-0.5,1.3-0.7c0.5-0.2,0.9-0.3,1.4-0.5c13.6-4.9,27.8-7.2,42.2-8.6c26-2.4,52-1.8,78-0.1
			c39.1,2.5,78,7.7,116.7,13.8c10.1,1.6,20.3,3.3,30.4,4.8c3.9,0.6,7.8,0.8,11.7,1c1.9,0.1,3.8-0.3,5.8-0.4c2,0,3.9,0.1,5.9,0.1
			c2.4,0,4.8,0.3,7.1-0.2c5.5-1.1,11.2-1.1,16.7-2.2C371.8,811.1,372.2,811.4,373.2,811.6z M392.8,814.2
			c-13.4,4.6-27.4,6.4-41.4,7.9C365.7,821.6,379.6,819.6,392.8,814.2z"/>
		<path class="st27" d="M396.3,805.8c-1.5,0.9-3,1.8-4.8,2.9c0.6,0.2,1,0.2,1.3,0.3c0,0.1,0.1,0.2,0.1,0.3c-1.6,0.5-3.3,1-4.9,1.4
			c0-0.1,0-0.1-0.1-0.2c1.1-0.8,2.2-1.7,3.3-2.5c-0.1-0.1-0.1-0.2-0.2-0.3c-3.5,0.9-7,1.7-10.5,2.6c-0.1-0.2-0.1-0.4-0.2-0.6
			c2.9-0.7,5.7-1.4,8.6-2.1c0.5-0.1,1-0.4,1.5-0.6c2-0.6,4.1-1.2,6.1-1.8C396.5,805.3,396.4,805.5,396.3,805.8z"/>
		<path class="st27" d="M405.1,799c2.1-2.7,4.1-5.4,6.2-8.1C409.7,794,408.2,797.1,405.1,799z"/>
		<path class="st27" d="M396.3,805.8c0.1-0.2,0.2-0.4,0.4-0.6c1.8-1,3.7-1.9,5.8-3C400.9,804.5,398.6,805.1,396.3,805.8z"/>
	</g>
</g>
<g>
	<text transform="matrix(1 0 0 1 16.3243 872.821)" class="st27" style="font-family:'CenturyGothic-Bold'; font-size:37.235px;">Médicos &amp; Dentistas</text>
</g>
<rect x="-71" y="455.8" class="st27" width="129" height="129"/>
<rect x="83" y="455.8" class="st28" width="129" height="129"/>
<rect x="244" y="455.8" class="st29" width="129" height="129"/>
</svg>
